/* XPM */
static char *cd83e708ab61428ab2351ee715f2f1987XjOmwGmwUIaD36J[] = {
/* columns rows colors chars-per-pixel */
"64 64 132 2 ",
"   c None",
".  c #0C5C82",
"X  c #105F84",
"o  c #136186",
"O  c #176388",
"+  c #1A6689",
"@  c #1E688C",
"#  c #226B8D",
"$  c #276E90",
"%  c #296F91",
"&  c #2C7292",
"*  c #337696",
"=  c #357897",
"-  c #367898",
";  c #3B7B9A",
":  c #407F9C",
">  c #44819F",
",  c #4783A0",
"<  c #4A85A2",
"1  c #4E89A4",
"2  c #528BA6",
"3  c #568EA8",
"4  c #588FA9",
"5  c #5D93AC",
"6  c #6296AE",
"7  c #6597B0",
"8  c #6698B0",
"9  c #6B9CB3",
"0  c #719FB6",
"q  c #72A0B6",
"w  c #75A3B8",
"e  c #79A5BA",
"r  c #7EA8BD",
"t  c #81ABBE",
"y  c #85ADC0",
"u  c #88AFC2",
"i  c #8DB2C4",
"p  c #91B5C6",
"a  c #94B7C8",
"s  c #96B9C9",
"d  c #9DBDCC",
"f  c #A0BFCE",
"g  c #A1C0CF",
"h  c #A4C2D0",
"j  c #AAC6D3",
"k  c #AFCAD6",
"l  c #B1CBD7",
"z  c #B5CED9",
"x  c #B8CFDB",
"c  c #BCD2DD",
"v  c #C0D5DF",
"b  c #C3D7E0",
"n  c #C6D9E2",
"m  c #CBDCE4",
"M  c #CCDDE5",
"N  c #CEDEE6",
"B  c #CFDFE6",
"V  c #CADCE4",
"C  c #D0DFE7",
"Z  c #D0E0E7",
"A  c #D1E0E8",
"S  c #D2E1E8",
"D  c #D3E1E8",
"F  c #D3E2E9",
"G  c #D4E2E9",
"H  c #D6E3EA",
"J  c #D6E4EA",
"K  c #D6E4EA",
"L  c #D8E5EB",
"P  c #D9E5EB",
"I  c #DAE6EC",
"U  c #DBE7EC",
"Y  c #DBE7ED",
"T  c #DCE7ED",
"R  c #D9E5EB",
"E  c #DCE8ED",
"W  c #DDE8ED",
"Q  c #DFE9EE",
"!  c #DFEAEF",
"~  c #DDE8ED",
"^  c #E0EAEF",
"/  c #E1EBEF",
"(  c #E1EBF0",
")  c #E2ECF0",
"_  c #E3ECF1",
"`  c #E6EEF2",
"'  c #E7EFF2",
"]  c #E7EFF3",
"[  c #E4EDF1",
"{  c #E8EFF3",
"}  c #E9F0F3",
"|  c #E9F1F4",
" . c #EAF1F4",
".. c #EBF1F5",
"X. c #EBF2F5",
"o. c #EDF3F6",
"O. c #EEF3F6",
"+. c #EEF4F6",
"@. c #EFF4F7",
"#. c #EDF3F5",
"$. c #F0F5F7",
"%. c #F0F5F7",
"&. c #F1F6F8",
"*. c #F2F6F8",
"=. c #F2F7F9",
"-. c #F3F7F9",
";. c #F4F7F9",
":. c #F2F6F8",
">. c #F4F8FA",
",. c #F5F8FA",
"<. c #F5F9FA",
"1. c #F6F9FB",
"2. c #F7F9FB",
"3. c #F7FAFB",
"4. c #F6F9FA",
"5. c #F8FAFB",
"6. c #F8FAFC",
"7. c #F9FBFC",
"8. c #FAFBFC",
"9. c #FAFCFC",
"0. c #FAFCFD",
"q. c #FBFCFD",
"w. c #FBFDFD",
"e. c #FCFDFD",
"r. c #FCFDFE",
"t. c #FDFDFE",
"y. c #FDFEFE",
"u. c #FEFEFE",
"i. c #FEFEFF",
"p. c #FEFFFF",
"a. c white",
"s. c #FFFFFF",
/* pixels */
"                                                            . . . .                                                             ",
"                                                . . . . . . . . . . . . . . . .                                                 ",
"                                          . . . . . . . . . . . . . . . . . . . . . .                                           ",
"                                    . . . . . . . . . . . . . . . . . . . . . . . . . . . .                                     ",
"                                . . . . . . . . . . . . . . . . . . . . . . . . . . . - w X .                                   ",
"                              . . . . . . . . . . . . . . . . . . . . . . . . . . . . c u.! 5 . .                               ",
"                          . . . . . . . . . . . . . . . . . . . . . . . . . . . . . < u.u.u.w . . . .                           ",
"                        . . . . . . . . . . . . . . . . . . . . . X & y r 2 > @ . . n u.u.) o . . . . .                         ",
"                      . . . . . . . . . . . . . . . . . . . . 1 h ` u.u.u.u.u.0.M z u.u.u.8 . . . . . . .                       ",
"                    . . . . . . . . . . . . . . . . . . . , M u.u.u.u.u.u.u.u.u.u.u.u.u.L X . . . . . . . .                     ",
"                  . . . . . . . . . . . . . . . . . . . i u.u.u.u.u.J 2 3 Z u.u.u.u.u.u.o.; . . . . . . . . .                   ",
"                . . . . . . . . . . . . . . . . . . o l u.u.u.u.o.w o . . . 5 I u.u.u.u.u.&.1 . . . . . . . . .                 ",
"              . . . . . . . . . . . . . . . . . . . j u.u.u.0.d # . . . . . . . 9 ! u.u.u.u.>.; . . . . . . . . .               ",
"            . . . . . . . . . . . . . . . . . . ; c u.u.u.b ; . . . . . . . . . . o q ` u.u.u.I ; . . . . . . . . .             ",
"            . . . . . . . . . . . . . . . . # d u.u.u.( 5 . . . . . . . . . . . . . . O r O.u.u.u.l ; . . . . . . .             ",
"          . . . . . . . . . . . . . . . X q o.u.u.>.y o . . . . . . . . . . . . . . . . . @ i &.u.u.u.h & . . . . . .           ",
"        . . . . . . . . . . . . . . . 1 J u.u.u.j & . . . . . . . + 8 w * . . . . . . . . . . # a >.u.u.0.d $ . . . .           ",
"        . . . . . . . . . . . . . & z u.u.u.Z , . . . . . . . . % ( u.u.5.8 . . . . . . . . . . . & d 0.u.u.>.p @ . . .         ",
"      . . . . . . . . . . . . + i 7.u.u.| 9 X . . . . . . . . . h u.u.u.u.o.o . . . . . . . . . . . . * k u.u.u.F . . .         ",
"      . . . . . . . . . . . 5 ` u.u.0.a @ . . . . . . . . . . . F u.c 9 u.u.* . . . . . . . . . . . . @ a 0.u.u.M . . . .       ",
"    . . . . . . . . . . . o 7.u.u.>.> . . . . . . . . . . . # d u.u.u.0.u.%.o . . . . . . . . . . X q | u.u.2.i + . . . .       ",
"    . . . . . . . . . . . . g u.u.u.o.r O . . . . . . . . q O.u.u.u.u.u.0.9 . . . . . . . . . . < F u.u.u.l & . . . . . . .     ",
"    . . . . . . . . . . . . . ; c u.u.u.` q o . . . . , F u.u.u.j - q r ; . . . . . . . . . & k u.u.u.G 1 . . . . . . . . .     ",
"  . . . . . . . . . . . . . . . . < n u.u.u.! 8 . # h u.u.u.F < . . . . . . . . . . . . o i >.u.u.u.z X . . . . . . . . . .     ",
"  . . . . . . . . . . . . . . . . . . 3 ` u.u.u.I &.u.u.o.w o . . . . . . . . . . . . 6 ) u.u.0.5.u.d . . . . . . . . . . . .   ",
"  . . . . . . . . . . . . . . . . . . . l u.u.u.u.u.u.F $ . . . . . . . . . . . . ; n u.u.u.c = I u.d . . . . . . . . . . . .   ",
"  . . . . . . . . . . . . . . . . . . . l u.M 9 u.u.u.u.n , . . . . . . . . . # g u.u.u.! 3 . . I u.d . . . . . . . . . . . .   ",
"  . . . . . . . . . . . . . . . . . . . l u.n o 0.u.u.u.u.u.c ; . . . . . o e o.u.u.>.r o . . . I u.d . . . . . . . . . . . .   ",
". . . . . . . . . . . . . . . . . . . . l u.n o u.u.y r O.u.u.u.l * . . 2 J u.u.u.j # . . . . . I u.d . . . . . . . . . . . .   ",
". . . . . . . . . . . . . . . . . . . . l u.n o 0.u.e . @ i ;.u.u.7.h c u.u.u.M > . . . . . . . I u.d . . . . . . . . . . . .   ",
". . . . . . . . . . . . . . . . . . . . l u.n o u.u.e . . . # a 2.u.u.u.u.| 9 . . . . . . . . . I u.d . . . . . . . . . . . . . ",
". . . . . . . . . . . . . . . . . . . . l u.M o 0.u.e . . . . . & g 0.7.p + . . . . . . . . . . ! u.d . . . . . . . . . . . . . ",
". . . . . . . . . . . . . . . . . . . . k u.u.c u.u.w . . . . . . . % $ . . . . . . . . . . > c u.u.d . . . . . . . . . . . . . ",
". . . . . . . . . . . . . . . . . . . . 3 &.u.u.u.u.t . . . . . . . . . . . . . . . . . ; c u.u.u.| > . . . . . . . . . . . . . ",
". . . . . . . . . . . . . . 1 X . . . . . @ i &.u.u.u.h & . . . . . . . . . . . . . * k u.u.u.@.t + . . . . . . . . . . . . .   ",
". . . . . . . . . . . . . < u.J 4 . . . . . . $ u.u.u.u.2.d # . . . . . . . . . & h 0.u.u.&.i @ . . . . . . . . . . . . . . .   ",
"  . . . . . . . . . . . . n u.u.! o . . . . . o 0.u.! 7.u.u.>.p @ . . . . . # d 5.u.u.>.a # . . . . . . . . . . . . . . . . .   ",
"  . . . . . . . . . . . ; u.u.u.9 . . . . . . o 0.u.w * j u.u.u.%.y + . @ i >.u.u.0.h & . . . . . . . . . . . . . . . . . . .   ",
"  . . . . . . . . . . . p u.u.| o . . . . . . o u.u.e . . ; z u.u.u.| g &.u.u.u.k * . . . . . . . . . . . . . . . . . . . . .   ",
"  . . . . . . . . . . . M u.u.d . . . . . . . o 0.u.e . . . . > b u.u.u.u.u.b ; . . . . . . . . . . . . . . . . . . . . . . .   ",
"  . . . . . . . . . . . &.u.u.8 . . . . . . . * u.u.a . . . . . . 1 M u.u.u.a . . . . . . . . . . . . . . . . . . . . . . .     ",
"    . . . . . . . . . @ u.u.u.> . . . . . . 9 7.u.u.u.n + . . . . . . g u.u.b . . . . . . . . . . . . . . . . . . . . . . .     ",
"    . . . . . . . . . @ u.u.u.; . . . . . - 0.u.7.@.u.u.d . . . . . . 0 u.u.( . . . . . . . . . . . . . . . . . . . . . . .     ",
"    . . . . . . . . . + u.u.u.< . . . . . y u.5.; o z u.o.. . . . . . 9 u.u.{ . . . . . . . . . . . . . . . . . . . . . .       ",
"      . . . . . . . . . O.u.u.9 . . . . . a u.} . . t u.0.o . . . . . r u.u.! . . . . . . . . . . . . . . . . . . . . . .       ",
"      . . . . . . . . . c u.u.c . . . . . 8 u.u.j r o.u.M . . . . . . z u.u.z . . . . . . . . . . . . . . . . . . . . . .       ",
"        . . . . . . . . e u.u.u.% . . . . o Z u.u.u.u.0.2 . . . . . # 0.u.u.q . . . . . . . . . . . . . . . . . . . . .         ",
"        . . . . . . . . # 0.u.u.d . . . . . @ h &.0.Z 2 . . . . . . d u.u.7.# . . . . . . . . . . . . . . . . . . . . .         ",
"          . . . . . . . . g u.u.u.< . . . . . . X O . . . . . . . < u.u.u.a . . . . . . . . . . . . . . . . . . . . .           ",
"            . . . . . . . & >.u.u.O.; . . . . . . . . . . . . . ; &.u.u.o.@ . . . . . . . . . . . . . . . . . . . .             ",
"            . . . . . . . . 9 u.u.u.&.2 . . . . . . . . . . . 2 o.u.u.u.6 . . . . . . . . . . . . . . . . . . . . .             ",
"              . . . . . . . . a u.u.u.u.l ; . . . . . . . : l u.u.u.u.y . . . . . . . . . . . . . . . . . . . . .               ",
"                . . . . . . . X i u.u.u.u.u.F a 9 8 w d I u.u.u.u.u.y . . . . . . . . . . . . . . . . . . . . .                 ",
"                  . . . . . . . . f u.u.u.u.u.u.u.u.u.u.u.u.u.u.` 3 . . . . . . . . . . . . . . . . . . . . .                   ",
"                    . . . . . . . L u.u.u.u.u.u.u.u.u.u.u.u.| r O . . . . . . . . . . . . . . . . . . . . .                     ",
"                      . . . . . 9 u.u.u.9 5 d n ) | ! n i 2 o . . . . . . . . . . . . . . . . . . . . . .                       ",
"                        . . . o ) u.u.b . . . . . . . . . . . . . . . . . . . . . . . . . . . . . . . .                         ",
"                          . . 9 u.u.u.< . . . . . . . . . . . . . . . . . . . . . . . . . . . . . . .                           ",
"                              . 5 G x . . . . . . . . . . . . . . . . . . . . . . . . . . . . . .                               ",
"                                . X @ . . . . . . . . . . . . . . . . . . . . . . . . . . . . .                                 ",
"                                    . . . . . . . . . . . . . . . . . . . . . . . . . . . .                                     ",
"                                        . . . . . . . . . . . . . . . . . . . . . . . .                                         ",
"                                              . . . . . . . . . . . . . . . . . .                                               ",
"                                                        . . . . . . .                                                           "
};
