/* XPM */
static char *result[] = {
/* columns rows colors chars-per-pixel */
"16 16 156 2 ",
"   c #09324F",
".  c #093350",
"X  c #0A3350",
"o  c #0A3452",
"O  c #0B3653",
"+  c #0B3754",
"@  c #0C3956",
"#  c #0D3A58",
"$  c #0F3C59",
"%  c #0F3E5C",
"&  c #11405F",
"*  c #12425F",
"=  c #1E5676",
"-  c #19567B",
";  c #1F5878",
":  c #1E5A7B",
">  c #1F5B7D",
",  c #205675",
"<  c #205776",
"1  c #205777",
"2  c #205877",
"3  c #215878",
"4  c #215978",
"5  c #225A79",
"6  c #235B7A",
"7  c #245C7C",
"8  c #245D7C",
"9  c #255D7C",
"0  c #255D7D",
"q  c #255E7D",
"w  c #265F7E",
"e  c #265F7F",
"r  c #305973",
"t  c #305C77",
"y  c #335F7B",
"u  c #27607F",
"i  c #276180",
"p  c #286180",
"a  c #286181",
"s  c #296282",
"d  c #2A6383",
"f  c #2A6483",
"g  c #286384",
"h  c #286484",
"j  c #2A6484",
"k  c #2B6584",
"l  c #2B6685",
"z  c #2C6584",
"x  c #2C6685",
"c  c #2C6686",
"v  c #2D6887",
"b  c #2D6888",
"n  c #2E6888",
"m  c #2E6988",
"M  c #2E6989",
"N  c #2E6A89",
"B  c #2F6A89",
"V  c #2F6A8A",
"C  c #2E6B8B",
"Z  c #28688C",
"A  c #2E6C8D",
"S  c #2E6C8E",
"D  c #2F6C8E",
"F  c #2F6D8F",
"G  c #346884",
"H  c #306C8B",
"J  c #306C8C",
"K  c #316D8C",
"L  c #316D8D",
"P  c #306E8D",
"I  c #326E8D",
"U  c #346E8C",
"Y  c #33708F",
"T  c #347091",
"R  c #377391",
"E  c #387090",
"W  c #3B7191",
"Q  c #3E7190",
"!  c #3E7898",
"~  c #407393",
"^  c #417493",
"/  c #407A97",
"(  c #447997",
")  c #4A7B95",
"_  c #407999",
"`  c #407A9A",
"'  c #427B9A",
"]  c #467C98",
"[  c #4F7F9D",
"{  c #5F7F95",
"}  c #4B809B",
"|  c #4A809C",
" . c #4F839F",
".. c #4F849F",
"X. c #4F84A2",
"o. c #5689A4",
"O. c #5C8BA6",
"+. c #5C8CA5",
"@. c #5C8EA9",
"#. c #6192AC",
"$. c #6995AA",
"%. c #6A98AE",
"&. c #6B99B1",
"*. c #709BB0",
"=. c #729CB0",
"-. c #719DB5",
";. c #739FB4",
":. c #719EB6",
">. c #799FB2",
",. c #7F9CB0",
"<. c #77A1B7",
"1. c #7AA4BA",
"2. c #7EA7BB",
"3. c #88A6B9",
"4. c #83ABBF",
"5. c #8DAABC",
"6. c #87AEC0",
"7. c #8AB0C3",
"8. c #8FB3C3",
"9. c #8DB2C4",
"0. c #92B1C3",
"q. c #99B3C4",
"w. c #93B6CA",
"e. c #98BBCD",
"r. c #99BBCE",
"t. c #9ABACE",
"y. c #9BBCCD",
"u. c #A4BDCE",
"i. c #A0C0CF",
"p. c #A3C1D0",
"a. c #A2C2D0",
"s. c #A3C2D1",
"d. c #A3C3D1",
"f. c #A6C0D1",
"g. c #A5C3D0",
"h. c #A4C3D3",
"j. c #A6C4D1",
"k. c #A7C5D2",
"l. c #A3C2D4",
"z. c #AAC4D5",
"x. c #A8C5D6",
"c. c #A9C6D6",
"v. c #AECBD6",
"b. c #AFCBD7",
"n. c #B1CDD9",
"m. c #B2CEDA",
"M. c #B3CFDA",
"N. c #B4CFDA",
"B. c #B3CDDC",
"V. c #BCD6DF",
"C. c #C3DBE3",
"Z. c #C6DDE5",
"A. c #C9DEE7",
"S. c #E3F2F6",
"D. c #E4F4F7",
"F. c None",
/* pixels */
"F.F.F.F.F.F.5 6 6 5 F.F.F.F.F.F.",
"F.F.F.F.6 e s f k z ) >.F.F.F.F.",
"F.F.2 9 d v V +.v.Z.D.=.9 2 F.F.",
"F.F.8 j B ] g.7.T A &.C.$.9 F.F.",
"F.5 s U 8.a.' F y.1.S D ;.V.G F.",
"F.0 c } N.:.! e.h.#.F o.M.*.q F.",
"2 u m L Y m.S.4.F _ i.9.k.n u 1 ",
"3 a B I Y g.p.-.n.d.` Z j.N a 2 ",
"3 a N | / <.A.X.Z Z @.b.%.M p 2 ",
"2 u n c...C s.6.w.r.2.R K b u < ",
"F.7 x B.> O.l. .E x.P I H l 8 F.",
"F.= w 5.^ [ t.W ( 0.f J h i 4 F.",
"F.F.3 r f.Q - ~ z.y , g : ; F.F.",
"F.F.F.o ,.q.u.3.t & % * $ F.F.F.",
"F.F.F.F.{ + @ # # @ O   F.F.F.F.",
"F.F.F.F.F.F.X X .   F.F.F.F.F.F."
};
