/* XPM */
static char *_60d5fdc109b4cec851230014651df2fSGQd2vIvkfFQ30AI[] = {
/* columns rows colors chars-per-pixel */
"16 16 84 1 ",
"  c None",
". c #0C5C82",
"X c #0D5D82",
"o c #0D5D83",
"O c #0E5D83",
"+ c #0F5E84",
"@ c #115F84",
"# c #166387",
"$ c #176388",
"% c #186488",
"& c #196589",
"* c #1C678A",
"= c #20698C",
"- c #236B8E",
"; c #246C8E",
": c #276E90",
"> c #2A7091",
", c #2C7192",
"< c #2D7293",
"1 c #307494",
"2 c #397A99",
"3 c #3A7B9A",
"4 c #3E7E9C",
"5 c #417F9D",
"6 c #42809E",
"7 c #44829F",
"8 c #4683A0",
"9 c #4784A1",
"0 c #528BA6",
"q c #538BA6",
"w c #5C92AB",
"e c #5E93AC",
"r c #5F93AD",
"t c #6095AD",
"y c #6195AE",
"u c #6296AE",
"i c #6598B0",
"p c #699BB2",
"a c #71A0B6",
"s c #78A5BA",
"d c #7AA6BB",
"f c #7CA7BC",
"g c #7DA8BC",
"h c #85ADC0",
"j c #89B0C3",
"k c #8AB0C3",
"l c #92B6C7",
"z c #95B8C8",
"x c #97B9C9",
"c c #99BACA",
"v c #9ABBCB",
"b c #9FBECD",
"n c #A0C0CE",
"m c #A1C0CF",
"M c #A2C1CF",
"N c #A3C1CF",
"B c #A3C1D0",
"V c #A4C2D0",
"C c #A6C3D1",
"Z c #A7C4D2",
"A c #A9C5D3",
"S c #AAC6D3",
"D c #ACC8D5",
"F c #B0CAD6",
"G c #B2CBD7",
"H c #B5CDD9",
"J c #B7CFDA",
"K c #B8CFDA",
"L c #BBD2DC",
"P c #C1D6DF",
"I c #C3D7E0",
"U c #C4D8E1",
"Y c #C6D9E2",
"T c #C8DAE3",
"R c #CADBE4",
"E c #CEDEE6",
"W c #CFDFE6",
"Q c #D0DFE7",
"! c #D1E0E7",
"~ c #D5E3E9",
"^ c #D6E3EA",
"/ c #D9E5EB",
"( c #F7FAFB",
") c #F8FAFC",
/* pixels */
"      ....      ",
"    ....$*9s    ",
"  ....$NIY(r..  ",
" ....2Gi..qIu+  ",
" ..=xj%.Su..rY: ",
"...8K0>Nb6.4Gu. ",
"....@Q)e.-vhN...",
".....BZsDn>.N...",
"...1#jR;#.6Sw...",
"...E*.LvlBg#....",
"..@Q.pY-6H..... ",
" ..^#fL>7B..... ",
" ..aD%.,E2....  ",
"  ..Y/^Y7.....  ",
"   %x.......    ",
"     ......     "
};
