/* XPM */
static char *result[] = {
/* columns rows colors chars-per-pixel */
"32 32 110 2 ",
"   c #08314E",
".  c #0A3552",
"X  c #0C3956",
"o  c #0E3C5A",
"O  c #103F5E",
"+  c #11415F",
"@  c #1B435F",
"#  c #124361",
"$  c #1B4764",
"%  c #174967",
"&  c #1D4965",
"*  c #114668",
"=  c #144D6E",
"-  c #1B4D6A",
";  c #165176",
":  c #1E5675",
">  c #175379",
",  c #1A567A",
"<  c #1C597D",
"1  c #205776",
"2  c #295672",
"3  c #205877",
"4  c #235C7B",
"5  c #285E7C",
"6  c #315B76",
"7  c #315E7A",
"8  c #27607F",
"9  c #28607F",
"0  c #235F81",
"q  c #266181",
"w  c #2A6484",
"e  c #2D6887",
"r  c #2A678A",
"t  c #2D6B8C",
"y  c #306987",
"u  c #316D8C",
"i  c #3A6E8C",
"p  c #33708F",
"a  c #39708E",
"s  c #326F90",
"d  c #357292",
"f  c #3B7595",
"g  c #3F7895",
"h  c #55788F",
"j  c #417494",
"k  c #4C7B95",
"l  c #457C9A",
"z  c #497E9A",
"x  c #4A819E",
"c  c #63869C",
"v  c #4A81A0",
"b  c #5386A1",
"n  c #5B87A3",
"m  c #5488A5",
"M  c #588BA5",
"N  c #5B8EA9",
"B  c #6D8EA3",
"V  c #628FA9",
"C  c #6F91A7",
"Z  c #6595AE",
"A  c #6894AB",
"S  c #6C99AF",
"D  c #6D9BB2",
"F  c #749DB3",
"G  c #76A1B7",
"H  c #7AA2B6",
"J  c #77A0B8",
"K  c #7CA6BB",
"L  c #7FA8BD",
"P  c #819EB2",
"I  c #84A3B7",
"U  c #83AABE",
"Y  c #8AA9BB",
"T  c #86ADC1",
"R  c #8AAEC3",
"E  c #8DB1C5",
"W  c #94B7C9",
"Q  c #96B9CC",
"!  c #9CBCCC",
"~  c #A6BECE",
"^  c #A1C1CE",
"/  c #A4C2D2",
"(  c #A9C5D4",
")  c #ACC9D5",
"_  c #ADC9DA",
"`  c #B0CCD7",
"'  c #B1CDD9",
"]  c #B6D0DB",
"[  c #BCD4DE",
"{  c #B7D1E0",
"}  c #BFD7E3",
"|  c #C1D7E3",
" . c #C3DAE5",
".. c #C8DDE5",
"X. c #C6DBE9",
"o. c #CADDEA",
"O. c #CDE1EB",
"+. c #D2E6EC",
"@. c #D7E9EE",
"#. c #D4E6F1",
"$. c #D6E9F2",
"%. c #DCEDF2",
"&. c #DEF0F4",
"*. c #E0EFF4",
"=. c #E4F2F6",
"-. c #E5F3F9",
";. c #EAF6F9",
":. c #EDFBFD",
">. c #F3FEFF",
",. c None",
/* pixels */
",.,.,.,.,.,.,.,.,.,.,.,.,.3 3 3 3 : : ,.,.,.,.,.,.,.,.,.,.,.,.,.",
",.,.,.,.,.,.,.,.,.,.3 4 < 8 4 8 5 4 4 4 3 : ,.,.,.,.,.,.,.,.,.,.",
",.,.,.,.,.,.,.,.: 4 8 8 9 8 9 8 w 8 q 8 8 i F 9 ,.,.,.,.,.,.,.,.",
",.,.,.,.,.,.,.3 4 8 8 8 w w e e w u a w 9 ^ :.k 4 : ,.,.,.,.,.,.",
",.,.,.,.,.3 4 4 8 8 e e t t t t S @.:.;.} :.` 8 8 3 : ,.,.,.,.,.",
",.,.,.,.: 3 4 q 8 e u e t t b } ;.E D +.>.:.[ u q 4 4 : ,.,.,.,.",
",.,.,.,.3 5 q w e y y u j ^ :._ x t t s G @.>.[ y q 5 : : ,.,.,.",
",.,.,.3 4 q w y y u a U =.O.N t t t t t t d L &.%.H q 5 3 ,.,.,.",
",.,.1 3 8 w e e u A +.=.K s t s v _ L s t t t d U =.+.A < : ,.,.",
",.,.3 4 q w e z ] :.Q f s t s t _ X.:.v s s t t t a O.:.A 3 ,.,.",
",.1 4 0 w e u ! >.) f t s s d Q :.:.&.f t s t t N O.=.H 9 3 : ,.",
",.1 5 q w e u u F } =.L d Z $.} N m f t s t v ' >.) a e 8 8 : ,.",
",.3 4 w e y u p t d ` +.;.-.T d s t s s d W :.] ;.S e e w 4 : ,.",
",.3 4 w w u u u p p ! ) O.>.%.G s s s D &.#.Z r %.S u w w 8 4 ,.",
",.4 4 w e u u u p p Q ) [ E U =.$.L  .-.T t r r =.S u e w 8 3 : ",
"1 3 9 w e u u u p p ^ ) | U r d E -./ f r r r r =.S t e w 8 3 : ",
": 5 4 w r y u u p p J ;.;.R r r r r r r r r Z O.=.b t e 9 8 3 : ",
",.3 9 w r u u Q S u d z o.-.( l r r r r M O.;.! g t u e w 8 3 : ",
",.3 5 w y y m -.Q t t t { ( _ -.Q f v _ =.^ l p p u t e 9 8 3 ,.",
",.3 4 q r y R -.z t r s _ L s n _ $.$.Q j p p u p u e w 9 8 3 ,.",
",.: 4 q w y / o.q q q Z o.{ l s r N #.J t d u p u u e w 8 4 : ,.",
",.,.3 4 w w Q o., , < X.J ! Q t 0 t O.T t d p u u e e w 8 3 : ,.",
",.,.: 3 q 5 C o.j 0 q } E _ E 0 r v $.F q u p p e e w q 4 3 ,.,.",
",.,.= 3 5 0 6 o.T > > j ! E 0 > > T O.9 ; p y t q 4 8 8 3 : ,.,.",
",.,.,.: 4 3 o Y o.V ; , , , 0 ; V O.Y # : t t 0 > ; : : : ,.,.,.",
",.,.,.,.3 : X & ~ o.R i , , j R O.( - # % - 8 e q q 4 3 ,.,.,.,.",
",.,.,.,.,.* . X &  .o.o.o.o.o.o.I - # # + + % - % # # ,.,.,.,.,.",
",.,.,.,.,.,.  . h  .B c P P c 2 # + + o o o X X .   ,.,.,.,.,.,.",
",.,.,.,.,.,.,.. I ~ X X o o o o o o o o X . .     ,.,.,.,.,.,.,.",
",.,.,.,.,.,.,.,.. @   . . . X X X X . . . .     ,.,.,.,.,.,.,.,.",
",.,.,.,.,.,.,.,.,.,.,.. .   .     . .       ,.,.,.,.,.,.,.,.,.,.",
",.,.,.,.,.,.,.,.,.,.,.,.,.,.,.,.,.,.,.,.,.,.,.,.,.,.,.,.,.,.,.,."
};
