/* XPM */
static char *result[] = {
/* columns rows colors chars-per-pixel */
"64 64 134 2 ",
"   c #072F4C",
".  c #07304C",
"X  c #09314E",
"o  c #0A3552",
"O  c #0C3956",
"+  c #0E3C5A",
"@  c #113B57",
"#  c #103F5E",
"$  c #073F65",
"%  c #11415F",
"&  c #0B4267",
"*  c #124462",
"=  c #194662",
"-  c #144A6B",
";  c #1B4D6B",
":  c #144F72",
">  c #165176",
",  c #1E5575",
"<  c #1F5877",
"1  c #175379",
"2  c #1A567A",
"3  c #1C597D",
"4  c #204965",
"5  c #23506D",
"6  c #205776",
"7  c #285774",
"8  c #205877",
"9  c #2F5A76",
"0  c #235C7B",
"q  c #2B5E7C",
"w  c #315C76",
"e  c #3A5F78",
"r  c #27607F",
"t  c #3C657F",
"y  c #1F5E82",
"u  c #235E81",
"i  c #266181",
"p  c #2A6484",
"a  c #2D6887",
"s  c #27678B",
"d  c #2A6789",
"f  c #2D6B8C",
"g  c #306785",
"h  c #3C6781",
"j  c #3D6884",
"k  c #316D8C",
"l  c #3C6E8A",
"z  c #33708F",
"x  c #3B718E",
"c  c #2F6D90",
"v  c #316E91",
"b  c #357292",
"n  c #3A7494",
"m  c #3F7996",
"M  c #3D7798",
"N  c #436A83",
"B  c #43748F",
"V  c #48728C",
"C  c #50768E",
"Z  c #427693",
"A  c #447A96",
"S  c #447C9A",
"D  c #4A7C99",
"F  c #4B819E",
"G  c #52829E",
"H  c #63869C",
"J  c #4D83A1",
"K  c #5286A2",
"L  c #5589A4",
"P  c #5B8BA5",
"I  c #5C8EA9",
"U  c #5F90AA",
"Y  c #608FA7",
"T  c #6C8DA3",
"R  c #6F90A5",
"E  c #6493AC",
"W  c #6A95AE",
"Q  c #6C98AF",
"!  c #7295AA",
"~  c #7896AA",
"^  c #7798AC",
"/  c #6797B1",
"(  c #6C97B0",
")  c #6C9AB2",
"_  c #739EB4",
"`  c #799EB4",
"'  c #76A1B7",
"]  c #75A1B9",
"[  c #7CA5BB",
"{  c #7FA9BE",
"}  c #81A7BD",
"|  c #88A6B9",
" . c #83A9BD",
".. c #89ADBF",
"X. c #86ADC2",
"o. c #89AEC1",
"O. c #8DB2C4",
"+. c #8FB4C8",
"@. c #9CB6C7",
"#. c #91B6C8",
"$. c #96B9CA",
"%. c #9BBCCC",
"&. c #9ABED1",
"*. c #A2BECD",
"=. c #A5C4D3",
"-. c #A9C6D4",
";. c #AAC8D7",
":. c #ADC9D9",
">. c #B3CDDB",
",. c #B6D1DC",
"<. c #BBD3DE",
"1. c #BDD4E2",
"2. c #C1D6E4",
"3. c #C4D9E5",
"4. c #C9DEE6",
"5. c #C5DBE8",
"6. c #CADDEA",
"7. c #CEE2ED",
"8. c #D1E4EE",
"9. c #D6E8EE",
"0. c #CEE5F0",
"q. c #D3E5F1",
"w. c #D5E9F3",
"e. c #DBECF3",
"r. c #DBEFF8",
"t. c #DFF1F6",
"y. c #DEF1FA",
"u. c #E1EEF6",
"i. c #E3F1F6",
"p. c #E3F3F9",
"a. c #EAF6FA",
"s. c #EDFBFD",
"d. c #F4FEFF",
"f. c None",
/* pixels */
"f.f.f.f.f.f.f.f.f.f.f.f.f.f.f.f.f.f.f.f.f.f.f.f.f.f.f.f.f.f.f.6 6 f.f.f.f.f.f.f.f.f.f.f.f.f.f.f.f.f.f.f.f.f.f.f.f.f.f.f.f.f.f.f.",
"f.f.f.f.f.f.f.f.f.f.f.f.f.f.f.f.f.f.f.f.f.f.f.f.8 8 8 8 8 8 0 8 8 8 8 8 8 8 6 8 f.f.f.f.f.f.f.f.f.f.f.f.f.f.f.f.f.f.f.f.f.f.f.f.",
"f.f.f.f.f.f.f.f.f.f.f.f.f.f.f.f.f.f.f.f.f.8 8 8 8 0 0 0 0 0 0 8 0 0 0 0 0 0 0 8 8 8 8 f.f.f.f.f.f.f.f.f.f.f.f.f.f.f.f.f.f.f.f.f.",
"f.f.f.f.f.f.f.f.f.f.f.f.f.f.f.f.f.f.f.8 8 8 8 0 0 0 0 0 0 i 0 q 0 r 0 r 0 0 0 0 0 0 8 6 8 f.f.f.f.f.f.f.f.f.f.f.f.f.f.f.f.f.f.f.",
"f.f.f.f.f.f.f.f.f.f.f.f.f.f.f.f.f.8 8 8 0 0 0 0 0 i q r r r r i r r r r q i r 0 r 0 0 0 B 6 , f.f.f.f.f.f.f.f.f.f.f.f.f.f.f.f.f.",
"f.f.f.f.f.f.f.f.f.f.f.f.f.f.f., 8 8 8 0 0 0 i q i i p r p i i i i p p i i i i i r r r _ t.@.x , , f.f.f.f.f.f.f.f.f.f.f.f.f.f.f.",
"f.f.f.f.f.f.f.f.f.f.f.f.f.f.6 8 0 0 0 0 q i i p p p p p p a p a a p p p p p p p r r a r.s.s.=.6 8 8 8 f.f.f.f.f.f.f.f.f.f.f.f.f.",
"f.f.f.f.f.f.f.f.f.f.f.f.8 8 8 8 0 0 r r i p p i p a p a a a a a a g a B Y k a p p p  .s.s.s.A r 8 8 8 , f.f.f.f.f.f.f.f.f.f.f.f.",
"f.f.f.f.f.f.f.f.f.f.f.6 8 8 0 0 0 i i p p p p a a a a a a a f a a k ..a.d.s.a.7.%.' p.s.s.-.r r 0 0 8 6 , f.f.f.f.f.f.f.f.f.f.f.",
"f.f.f.f.f.f.f.f.f.f.8 8 8 0 q u r r p p p a a a a a k a k k a k _ e.d.d.d.d.d.d.s.d.d.d.s.x r r r 0 0 0 8 , f.f.f.f.f.f.f.f.f.f.",
"f.f.f.f.f.f.f.f.f., 8 8 0 0 u i i p a a g a a a f k a k k f G 3.d.d.d.>.{ 9.d.d.d.s.s.d.a.m p r i q 0 0 8 8 , f.f.f.f.f.f.f.f.f.",
"f.f.f.f.f.f.f.f.6 8 8 0 0 r r p p p a a a k k k a z k k A -.d.d.d.7.E f f c { t.d.d.d.d.d.t.G p p i r u 0 8 8 , f.f.f.f.f.f.f.f.",
"f.f.f.f.f.f.f.f.8 8 0 0 r r p p p a a a g a k k z z z ..a.d.d.p.{ k f f f f f b o.a.d.d.d.s.p.D p i i r q 0 8 8 , f.f.f.f.f.f.f.",
"f.f.f.f.f.f.f., 8 0 0 q i p p a a k k a k k k k k E 9.d.d.s.*.M f f c k k c f f s n #.a.d.d.d.7.Z p p i i 0 0 8 , f.f.f.f.f.f.f.",
"f.f.f.f.f.f.6 8 0 0 r r p i a a g f k f k k k G <.d.d.d.3.F c k c k f f f f f c f f f S %.s.d.d.a.$.x p q 0 0 8 8 6 f.f.f.f.f.f.",
"f.f.f.f.f., 8 0 0 0 r i p a a g a k a k k m %.d.d.d.e.! k c c f c c c c c c k f f f c f f S =.s.d.d.a...k i i 0 8 6 , f.f.f.f.f.",
"f.f.f.f.f., 8 0 q 0 i i a a a g k k k z } i.d.d.s.O.b c c c c c k v K _ F c c c c f f f f f f F :.d.d.s.t. .a 0 8 8 , f.f.f.f.f.",
"f.f.f.f., 8 8 0 r r p a a a a k k k Y 7.d.d.d.;.m k c c c c c f c &.s.s.s.+.c c c c f c f f f f a F ,.d.d.s.e.' r 0 6 , f.f.f.f.",
"f.f.f.f.8 8 0 r i p p a a a k k D >.d.d.d.7.P k c c c c c c k c I d.s.d.d.s.L c c c f f f f f f f a s L 1.s.d.s.-.8 8 6 f.f.f.f.",
"f.f.f.6 8 8 0 r i i p a a k k O.a.d.d.e.' v k k c c c c k c c c X.s.a.K d.s.] c c c b f f c f f f s a z $.s.s.s.>.0 0 6 , f.f.f.",
"f.f.f.6 8 0 u i r p a a a k W d.d.d.1.b f b f c c c f c c c v ) e.d.s.p.s.d.U c c c c c f c f c f f ' e.d.s.a.O.g 0 0 8 , f.f.f.",
"f.f.f.6 8 0 q i i a a g k f A 8.d.d.d.3.U f c f c f c c f L 1.s.s.d.s.s.s.;.f f c k c k k f f f P 4.d.d.s.,.A p i 0 0 0 6 , f.f.",
"f.f.6 8 0 0 0 i p p a a a k k b [ e.a.i.s.<.L c c c c n $.s.p.y.5.E ( o./ c c k c f c c f c S -.d.d.d.7.Y a a p i u 0 0 8 , f.f.",
"f.f.6 8 0 0 r p a a a a k k k k k x ] 1.p.d.w.&.J c / 5.p.s.0.] v c c v f c c c c c c k b o.a.d.d.d.<.k f a a p p r 0 8 8 , f.f.",
"f.f.6 8 0 r r p p a a k k k k k z z z n #.d.w.0.p.9.a.w.p.-.M c c c f v c v c f c c f ) e.d.d.d.a.d.=.k k a a a p q q 0 8 , f.f.",
"f.f.8 8 0 r r p a a a k k k k k k z z z D d.w.7.d.d.d.t./ k c c c c c c c f c v k J 1.d.d.d.1.J 7.d.-.k k a a i p i r 0 8 8 , f.",
"f., 8 8 0 r p p a a a k k k k k z z k k S d.a.Q <.d.d.d.i.%.M k c c f f b f c M %.d.d.d.9.E s s 4.d.-.k a k a a p i r 0 8 8 , f.",
"f.6 8 0 0 r r p a a a k k k x v z z z z S d.d.W o.d.d.d.d.d.a.#.n c c c c f [ i.d.d.a.X.k s s s 4.d.=.k k g a a p i r 0 0 8 , f.",
"f.6 8 0 r i p p a a k k k k k k z z z z A d.d.Y ..d.u.D -.d.d.d.i...z f I 7.d.d.s.;.M s f s s s 4.d.-.k f k a a p i i 0 0 8 , f.",
"f., 8 8 0 i i a a a a k k k k k z z z z S d.d.E ..d.e.s s D :.s.d.d.e.<.d.d.d.4.L c s s s s f s 4.d.-.k k k a a p p r r 0 8 , f.",
"f.6 8 0 q i p p a a k k k k k k z z z z S d.d.Y ..d.e.a s s c L <.d.d.d.d.e._ s s s s s s s s s 4.d.-.g g a k a a p r 0 0 8 , f.",
"f., 8 0 0 i p p a a a k k k k k z z z z S d.d._ O.d.e.a s s s s s I 3.a.#.b s s s s s c s s a f 9.d.=.k k k a g p r i 0 0 8 6 f.",
"f.6 8 0 q r p a a a a k k v k v z z z z m s.a.d.e.d.e.s c s f s s s s s s s s s f s s s c s _ e.d.d.=.g k a k a p i r 0 0 8 6 f.",
"f.6 8 0 0 r r p p a k k k k k v z z z z z [ 9.a.a.a.p.Z s s s s a s s s c s s s s s f s ) w.d.d.d.<.D k a k a a p i r 0 0 8 6 f.",
"f.6 8 0 r i p p a a a k k k D } b z z z z z m +.u.a.d.p.$.n d s s s s s s s c s s s E 7.d.d.d.8.W k z k k a a a p p r 0 0 8 6 f.",
"f., 8 0 0 r r a a a k k k k :.p.7.) z k z z a k O.e.u.u.a.p.o.v s f c s s c s s P <.d.d.d.9._ z z k k k k k a a a r r q 8 8 , f.",
"f., 8 8 0 u i p a a a k k K p.p.p.' f z b s z f o.a.p.-.d.p.d.8.] v s s s s J :.u.a.d.e.[ x z z k k k k k a a a p p i 0 0 6 , f.",
"f., 8 8 q u i p a a a k k &.u.p.7.z s z a k p f o.a.u.k D *.u.a.q.7._ f S &.0.y.s.8. .x z z z k z k k g k a a p p i r 0 8 8 , f.",
"f.f.8 8 0 q u g a a a k v 7.u.p. .p z k a s s b } u.8.k v c P *.w.q.u.6.q.0.0.1.' z z z z z z k k z k k a a a p i r 0 0 8 , , f.",
"f.f.8 8 0 q u u p a a a S p.p.u.A f z p a p z k } q.3.k v c b v L *.w.e.w.q.;.n z s z z z z k z k k k k k a a p p r 0 0 8 6 f.f.",
"f.f., 8 8 0 i p p a g a Y p.u.7.3 k f i i a z F :.q.6.] c s x v c g P >.q.w.2.u c v b v z z k k k k k k a a a p r r 0 0 8 , f.f.",
"f.f., 6 8 0 r i p p a a ( r.q.,.2 i < 2 2 c F 7.7.q.q.7.+.s v v c f u D 7.7.w.u u b v b z k z k k k k a a a p p i q 0 0 6 , f.f.",
"f.f.f.6 8 0 0 i p p p a W 8.6.1.2 2 2 2 2 r ;.7.5.} =.q.q.D v v f u u S 7.q.0.n u b v b z k z k k a k a a a p i r 0 0 8 6 f.f.f.",
"f.f.f.6 , 8 0 r i p p a K 6.7.6.< 2 2 2 2 3 7.8.( u s 7.7.( u d u u y n 0.7.7.Z k v l k k k k k k k k a a a p r 0 0 0 8 , f.f.f.",
"f.f.f.f., > 8 r u g g 0 9 6.7.7.D g f c f a 0.w.+.y M q.q.W c c c c c Y r.u.r.x f k z k k z k k k a a a p p p r r 0 8 , , f.f.f.",
"f.f.f.f., - 8 0 q u p 5 # >.6.6.` > > 1 1 > o.0.q.2.q.q.5.u y 1 1 1 1 } 0.7.:.- - i k z k k k f a d a d p p i r 0 8 8 , f.f.f.f.",
"f.f.f.f.f.- 8 0 u u u 0 # ~ 6.6.2.u > > 1 1 u :.q.w.q.5.D y 1 1 1 1 u 2.7.7.! - ; 0 k k k k k a i 0 u u p i i u 0 8 , , f.f.f.f.",
"f.f.f.f.f.- , 0 0 q u q $ 9 5.6.6.` > > > 1 2 0 D ` W j y > 1 1 1 1 X.7.7.7.7 # - 8 k k k k a a i u u 0 0 r q 0 8 8 , f.f.f.f.f.",
"f.f.f.f.f.f., < 8 0 0 0 O + | 5.6.6.D > > > 1 > > : > y y : > 1 1 L 6.8.8.` * * = 0 k k k s i u 2 1 > 1 8 0 0 0 < , f.f.f.f.f.f.",
"f.f.f.f.f.f., , 0 0 0 8 O + 5 1.6.6.2.D 6 > > y y y > y y y > > D 4.q.7.,.6 * * * a k k k d u 1 1 > > : > > - , < , f.f.f.f.f.f.",
"f.f.f.f.f.f.f.< < 8 0 < O O + N 3.6.6.6.} u > 1 $ y y > y > u | 7.7.6.6.j * * * * 0 0 0 r a a a p p i r 0 0 8 8 , f.f.f.f.f.f.f.",
"f.f.f.f.f.f.f.f., , < ; o O + + C 3.3.6.6.2.` B u y $ y D | 2.7.7.7.6.V * * * * * % % & 5 a a p i i r 3 0 0 8 , f.f.f.f.f.f.f.f.",
"f.f.f.f.f.f.f.f.f.- & ; o o O O + N 2.6.6.6.6.6.6.2.2.6.6.7.7.7.7.>.N # * * % % % % % % , 0 0 0 r 0 , , ; < , f.f.f.f.f.f.f.f.f.",
"f.f.f.f.f.f.f.f.f.f.& - X o o O @ = 1.3.3.6.6.6.6.6.6.6.7.6.6.6.! ; # # % % * % % % % + + + @ + O X o X X . f.f.f.f.f.f.f.f.f.f.",
"f.f.f.f.f.f.f.f.f.f.f.= X X o o o R 5.2.2.~ *.5.6.6.6.6.2.@.D 5 # * # * % % % % # + + + + O O o o o X X . f.f.f.f.f.f.f.f.f.f.f.",
"f.f.f.f.f.f.f.f.f.f.f.f.o X X o 4 <.2.5.T @ @ = i h h 9 = @ 4 # # # # # # % + + + + + O O O o o X X X . f.f.f.f.f.f.f.f.f.f.f.f.",
"f.f.f.f.f.f.f.f.f.f.f.f.f.O X . ~ 1.1.>.= o O @ + + + + + + # + # # # + + + + + O O O O o o o o . . . f.f.f.f.f.f.f.f.f.f.f.f.f.",
"f.f.f.f.f.f.f.f.f.f.f.f.f.f.O o e *.1.H o o O @ O O + + + + + @ @ $ O + + O O O O O O o o o . X . . f.f.f.f.f.f.f.f.f.f.f.f.f.f.",
"f.f.f.f.f.f.f.f.f.f.f.f.f.f.f.f.o X N @ o o o o o o + O + O @ O @ O O O O O O O o o o o X X X X f.f.f.f.f.f.f.f.f.f.f.f.f.f.f.f.",
"f.f.f.f.f.f.f.f.f.f.f.f.f.f.f.f.f.f.@ . X X X o o o o o o o o O O o O o o o o o o o X X X   f.f.f.f.f.f.f.f.f.f.f.f.f.f.f.f.f.f.",
"f.f.f.f.f.f.f.f.f.f.f.f.f.f.f.f.f.f.f.f.o . o . o o o o o o X o o o o o o X o X o . . . f.f.f.f.f.f.f.f.f.f.f.f.f.f.f.f.f.f.f.f.",
"f.f.f.f.f.f.f.f.f.f.f.f.f.f.f.f.f.f.f.f.f.f.f.o . . . . o X X o . . o .   X X   . . f.f.f.f.f.f.f.f.f.f.f.f.f.f.f.f.f.f.f.f.f.f.",
"f.f.f.f.f.f.f.f.f.f.f.f.f.f.f.f.f.f.f.f.f.f.f.f.f.f.f.O o X X o . o . o o o f.f.f.f.f.f.f.f.f.f.f.f.f.f.f.f.f.f.f.f.f.f.f.f.f.f.",
"f.f.f.f.f.f.f.f.f.f.f.f.f.f.f.f.f.f.f.f.f.f.f.f.f.f.f.f.f.f.f.f.f.f.f.f.f.f.f.f.f.f.f.f.f.f.f.f.f.f.f.f.f.f.f.f.f.f.f.f.f.f.f.f."
};
