/* XPM */
static char *_4e9b5fadd0944dea1bf76a9d6976494dRlJorRS7vL1CcKZ[] = {
/* columns rows colors chars-per-pixel */
"32 32 186 2 ",
"   c None",
".  c #0C5C82",
"X  c #0D5C82",
"o  c #0D5D82",
"O  c #0D5D83",
"+  c #0E5D83",
"@  c #0E5E83",
"#  c #0F5E83",
"$  c #0F5E84",
"%  c #105E84",
"&  c #105F84",
"*  c #115F84",
"=  c #115F85",
"-  c #116085",
";  c #126085",
":  c #136085",
">  c #136185",
",  c #146186",
"<  c #146286",
"1  c #156286",
"2  c #176388",
"3  c #186488",
"4  c #196589",
"5  c #1A6589",
"6  c #1B668A",
"7  c #1C678A",
"8  c #1D678B",
"9  c #1E688B",
"0  c #1F698C",
"q  c #216A8D",
"w  c #246C8E",
"e  c #256D8F",
"r  c #266E8F",
"t  c #286F90",
"y  c #2A7091",
"u  c #2B7192",
"i  c #2D7293",
"p  c #2E7393",
"a  c #327595",
"s  c #337696",
"d  c #347797",
"f  c #357797",
"g  c #387998",
"h  c #397A99",
"j  c #3A7B9A",
"k  c #3B7C9A",
"l  c #3C7C9B",
"z  c #3D7D9B",
"x  c #3E7D9C",
"c  c #41809D",
"v  c #42809E",
"b  c #43819E",
"n  c #44829F",
"m  c #45829F",
"M  c #4C87A3",
"N  c #4E88A4",
"B  c #4F89A4",
"V  c #508AA5",
"C  c #518AA5",
"Z  c #528BA6",
"A  c #548DA7",
"S  c #558DA7",
"D  c #5990AA",
"F  c #5A90AA",
"G  c #5A91AA",
"H  c #5B91AB",
"J  c #5D92AC",
"K  c #5F94AD",
"L  c #6094AD",
"P  c #6195AE",
"I  c #6296AE",
"U  c #6598B0",
"Y  c #6698B0",
"T  c #6799B1",
"R  c #6899B1",
"E  c #689AB2",
"W  c #699AB2",
"Q  c #6B9CB3",
"!  c #6D9DB4",
"~  c #6E9EB4",
"^  c #6E9EB5",
"/  c #709FB5",
"(  c #72A1B7",
")  c #78A4B9",
"_  c #79A5BA",
"`  c #7AA6BB",
"'  c #7CA7BC",
"]  c #7DA8BC",
"[  c #81AABE",
"{  c #83ACBF",
"}  c #84ADC0",
"|  c #89B0C2",
" . c #8CB2C4",
".. c #8DB2C4",
"X. c #8DB3C4",
"o. c #8EB3C5",
"O. c #93B6C7",
"+. c #93B7C8",
"@. c #99BBCB",
"#. c #9ABBCB",
"$. c #9EBECD",
"%. c #A0BFCE",
"&. c #A4C2D0",
"*. c #A5C3D1",
"=. c #A6C3D1",
"-. c #A9C5D3",
";. c #A9C6D3",
":. c #ABC7D4",
">. c #ADC8D5",
",. c #AEC9D5",
"<. c #B0CAD6",
"1. c #B0CAD7",
"2. c #B2CBD7",
"3. c #B3CCD8",
"4. c #B5CDD9",
"5. c #B6CED9",
"6. c #B7CEDA",
"7. c #B7CFDA",
"8. c #BAD1DC",
"9. c #BCD2DD",
"0. c #BED4DE",
"q. c #C0D4DE",
"w. c #C2D6E0",
"e. c #C3D6E0",
"r. c #C4D7E0",
"t. c #C4D7E1",
"y. c #C5D8E1",
"u. c #C6D9E2",
"i. c #C7D9E2",
"p. c #C8DAE3",
"a. c #CADBE4",
"s. c #CADCE4",
"d. c #CCDDE5",
"f. c #CDDDE5",
"g. c #CEDEE6",
"h. c #D0DFE7",
"j. c #D6E3EA",
"k. c #D6E4EA",
"l. c #D7E4EB",
"z. c #D8E5EB",
"x. c #D9E5EB",
"c. c #D9E6EB",
"v. c #DBE7EC",
"b. c #DCE7ED",
"n. c #DDE8ED",
"m. c #DEE9EE",
"M. c #DFEAEF",
"N. c #E0EAEF",
"B. c #E1EBEF",
"V. c #E1EBF0",
"C. c #E2ECF0",
"Z. c #E3ECF0",
"A. c #E4EDF1",
"S. c #E5EDF1",
"D. c #E5EEF2",
"F. c #E6EEF2",
"G. c #E7EFF3",
"H. c #E8F0F3",
"J. c #E9F0F4",
"K. c #E9F1F4",
"L. c #EAF1F4",
"P. c #EBF2F5",
"I. c #ECF2F5",
"U. c #EDF3F6",
"Y. c #EEF4F6",
"T. c #EFF4F7",
"R. c #F0F5F7",
"E. c #F1F5F8",
"W. c #F1F6F8",
"Q. c #F2F7F8",
"!. c #F3F7F9",
"~. c #F4F7F9",
"^. c #F4F8F9",
"/. c #F5F8FA",
"(. c #F5F9FA",
"). c #F8FAFB",
"_. c #F9FBFC",
"`. c #FBFCFD",
"'. c #FBFDFD",
"]. c #FCFDFD",
"[. c #FCFDFE",
"{. c #FDFEFE",
"}. c #FEFEFE",
"|. c #FEFEFF",
" X c #FEFFFF",
".X c white",
/* pixels */
"                          . . . . . .                           ",
"                    . . . . . . . . . . . .                     ",
"                . . . . . . . . . . . . . c #.w                 ",
"            . . . . . . . . . . . d g 9 . r.).t . .             ",
"          . . . . . . . . . 4 | D.{.{.{.V.{.+.. . . .           ",
"        . . . . . . . . . g Z.{.c.C B f.{.{.y.7 . . . .         ",
"      . . . . . . . . . M D.E.) = . . . H k.{.e.4 . . . .       ",
"      . . . . . . . t ;._.$.q . X X . . . % T m.P._ 1 . .       ",
"    . . . . . . 1 { ~.y.k . . . M 5.T . . . . ; / D.D.~ ; .     ",
"    . . . . . H B.D.L . . . . . m.p.'.4 . . . . . 4 f.{.~ .     ",
"  . . . . . . D.{.~ . . . . r >.{.{.j.. . . . . B k.I.~ = . .   ",
"  . . . . . . 4 { R.k.H ; ] !.y.z v 4 . . . p 2.{.=.7 . . . .   ",
"  . . . . . . . . 9 D.{.E.~.T . X . . . 4 ..).8.^.A . . . . .   ",
". . . . . . . . . . k.} {.{.e.b . . $ I D.m.A X I.A . . . . . . ",
". . . . . . . . . . c.~ {.L -.'.7.H a.E.] ; . . I.A . . . . . . ",
". . . . . . . . . . c.~ {.b . d 2.{.=.w . . . . I.A . . . . . . ",
". . . . . . . . . . 9.I.'.M . . . 4 . . . . b 0._.x . . . . . . ",
". . . . . . 4 o.0 X = ~ {.D.( ; . . . . g 5.{.=.i . . . . . . . ",
". . . . . . } {.H . . $ {.$.P.m.R % a >.{.2.d . . . . . . . . . ",
"  . . . . . l.V.. . . = {.v 2 { T.B.'.0.z . . . . . . . . . .   ",
"  . . . . = '.-.. . . R {.#.$ . 7 $.{.J . . . . . . . . . . .   ",
"  . . . . ; {.%.. . d {.o.I.R . . z {._ . . . . . . . . . . .   ",
"    . . . . P.a.. X b '.C b.` . . C {.Q . . . . . . . . . .     ",
"    . . . . =.{.g X . =._.p.8 . . >.{.p . . . . . . . . . .     ",
"      . . . g {.f.2 . . $ X . . L {.-.. . . . . . . . . .       ",
"      . . . X } {.j.v . . . 4 } {.V.q . . . . . . . . . .       ",
"        . . . . o.{.{.c.5.r.^.{.f.y . . . . . . . . . .         ",
"          . . . +.{.2.c.E.H.5.P $ . . . . . . . . . .           ",
"            . r ).e.. . . . . . . . . . . . . . . .             ",
"                D z . . . . . . . . . . . . . .                 ",
"                    . . . . . . . . . . . .                     ",
"                          . . . . . .                           "
};
